<svg width="264" height="528" viewBox="0 0 264 528" fill="none" xmlns="http://www.w3.org/2000/svg">
<rect x="4.24609" width="255.029" height="527.838" rx="12" fill="#111111"/>
<rect x="12" y="6" width="239.9" height="515.36" rx="12" fill="#E8E8E8"/>
<path d="M0 88.1057C0 85.7606 1.90102 83.8596 4.24605 83.8596V83.8596V127.116V127.116C1.90102 127.116 0 125.215 0 122.87V88.1057Z" fill="#111111"/>
<path d="M0 140.12C0 137.775 1.90102 135.874 4.24605 135.874V135.874V179.13V179.13C1.90102 179.13 0 177.229 0 174.884V140.12Z" fill="#111111"/>
<path d="M259.275 82.5327V82.5327C261.766 82.5327 263.786 84.5526 263.786 87.0441V145.427C263.786 147.919 261.766 149.939 259.275 149.939V149.939V82.5327Z" fill="#111111"/>
<path d="M69.2637 3.44995H194.522V3.44995C194.522 10.0453 189.176 15.392 182.58 15.392H81.2057C74.6103 15.392 69.2637 10.0453 69.2637 3.44995V3.44995Z" fill="#111111"/>
<path d="M68.3466 230V202.364H84.9176V205.332H71.6932V214.67H83.6761V217.639H71.6932V230H68.3466ZM108.786 202.364H112.132V220.662C112.132 222.551 111.687 224.238 110.796 225.722C109.915 227.198 108.669 228.363 107.058 229.217C105.448 230.063 103.559 230.486 101.391 230.486C99.2227 230.486 97.3335 230.063 95.7232 229.217C94.1129 228.363 92.8624 227.198 91.9718 225.722C91.0901 224.238 90.6493 222.551 90.6493 220.662V202.364H93.9959V220.392C93.9959 221.741 94.2928 222.942 94.8865 223.995C95.4803 225.039 96.3259 225.862 97.4235 226.464C98.53 227.058 99.8525 227.355 101.391 227.355C102.929 227.355 104.252 227.058 105.358 226.464C106.465 225.862 107.31 225.039 107.895 223.995C108.489 222.942 108.786 221.741 108.786 220.392V202.364ZM118.815 230V202.364H128.153C130.313 202.364 132.085 202.732 133.47 203.47C134.856 204.199 135.881 205.202 136.547 206.479C137.213 207.757 137.545 209.21 137.545 210.838C137.545 212.466 137.213 213.91 136.547 215.17C135.881 216.429 134.86 217.419 133.484 218.138C132.107 218.849 130.348 219.205 128.207 219.205H120.651V216.182H128.099C129.575 216.182 130.762 215.966 131.662 215.534C132.571 215.102 133.227 214.491 133.632 213.699C134.046 212.898 134.253 211.945 134.253 210.838C134.253 209.732 134.046 208.764 133.632 207.937C133.218 207.109 132.557 206.47 131.648 206.021C130.74 205.562 129.539 205.332 128.045 205.332H122.162V230H118.815ZM131.824 217.585L138.625 230H134.739L128.045 217.585H131.824ZM146.469 202.364V230H143.122V202.364H146.469ZM150.804 202.364H154.636L162.301 215.264H162.625L170.289 202.364H174.122L164.136 218.611V230H160.789V218.611L150.804 202.364ZM176.763 230H173.255L183.403 202.364H186.857L197.005 230H193.496L185.238 206.736H185.022L176.763 230ZM178.059 219.205H192.201V222.173H178.059V219.205Z" fill="#89D22D"/>
<line x1="36" y1="54.5" x2="53" y2="54.5" stroke="#111111"/>
<line x1="36" y1="57.431" x2="53" y2="57.431" stroke="#111111"/>
<line x1="36" y1="60.3621" x2="53" y2="60.3621" stroke="#111111"/>
<rect x="171.5" y="46.5" width="55" height="23" rx="11.5" stroke="#111111"/>
<circle cx="119.5" cy="493.5" r="3.5" fill="#111111"/>
<circle cx="132.5" cy="493.5" r="3.5" fill="#D9D9D9"/>
<circle cx="145.5" cy="493.5" r="3.5" fill="#D9D9D9"/>
<path d="M187.216 55.1818V55.8068H184.409V61H183.705V55.1818H187.216ZM187.829 61V60.375H187.988C188.119 60.375 188.228 60.3494 188.315 60.2983C188.402 60.2453 188.472 60.1534 188.525 60.0227C188.58 59.8902 188.621 59.7064 188.65 59.4716C188.68 59.2348 188.702 58.9337 188.715 58.5682L188.795 56.6364H191.704V61H191.033V57.2614H189.431L189.363 58.8182C189.348 59.1761 189.316 59.4915 189.266 59.7642C189.219 60.035 189.146 60.2623 189.048 60.446C188.951 60.6297 188.822 60.768 188.661 60.8608C188.5 60.9536 188.299 61 188.056 61H187.829ZM194.218 61.1023C193.942 61.1023 193.691 61.0502 193.465 60.946C193.24 60.84 193.061 60.6875 192.928 60.4886C192.796 60.2879 192.729 60.0455 192.729 59.7614C192.729 59.5114 192.779 59.3087 192.877 59.1534C192.976 58.9962 193.107 58.8731 193.272 58.7841C193.437 58.6951 193.619 58.6288 193.817 58.5852C194.018 58.5398 194.22 58.5038 194.423 58.4773C194.688 58.4432 194.903 58.4176 195.067 58.4006C195.234 58.3816 195.355 58.3504 195.431 58.3068C195.509 58.2633 195.548 58.1875 195.548 58.0795V58.0568C195.548 57.7765 195.471 57.5587 195.317 57.4034C195.166 57.2481 194.936 57.1705 194.627 57.1705C194.307 57.1705 194.056 57.2405 193.874 57.3807C193.692 57.5208 193.565 57.6705 193.491 57.8295L192.854 57.6023C192.968 57.3371 193.12 57.1307 193.309 56.983C193.5 56.8333 193.709 56.7292 193.934 56.6705C194.161 56.6098 194.385 56.5795 194.604 56.5795C194.745 56.5795 194.906 56.5966 195.087 56.6307C195.271 56.6629 195.448 56.7301 195.619 56.8324C195.791 56.9347 195.934 57.089 196.048 57.2955C196.161 57.5019 196.218 57.7784 196.218 58.125V61H195.548V60.4091H195.513C195.468 60.5038 195.392 60.6051 195.286 60.7131C195.18 60.821 195.039 60.9129 194.863 60.9886C194.687 61.0644 194.472 61.1023 194.218 61.1023ZM194.32 60.5C194.585 60.5 194.809 60.4479 194.991 60.3438C195.174 60.2396 195.313 60.1051 195.406 59.9403C195.5 59.7756 195.548 59.6023 195.548 59.4205V58.8068C195.519 58.8409 195.457 58.8722 195.36 58.9006C195.265 58.9271 195.156 58.9508 195.031 58.9716C194.907 58.9905 194.787 59.0076 194.67 59.0227C194.554 59.036 194.46 59.0473 194.388 59.0568C194.214 59.0795 194.051 59.1165 193.9 59.1676C193.75 59.2169 193.629 59.2917 193.536 59.392C193.445 59.4905 193.4 59.625 193.4 59.7955C193.4 60.0284 193.486 60.2045 193.658 60.3239C193.833 60.4413 194.053 60.5 194.32 60.5ZM197.442 61V56.6364H199.226C199.696 56.6364 200.069 56.7424 200.345 56.9545C200.622 57.1667 200.76 57.447 200.76 57.7955C200.76 58.0606 200.681 58.2661 200.524 58.4119C200.367 58.5559 200.165 58.6534 199.919 58.7045C200.08 58.7273 200.236 58.7841 200.388 58.875C200.541 58.9659 200.668 59.0909 200.768 59.25C200.869 59.4072 200.919 59.6004 200.919 59.8295C200.919 60.053 200.862 60.2528 200.749 60.429C200.635 60.6051 200.472 60.7443 200.26 60.8466C200.048 60.9489 199.794 61 199.499 61H197.442ZM198.078 60.3864H199.499C199.73 60.3864 199.911 60.3314 200.041 60.2216C200.172 60.1117 200.237 59.9621 200.237 59.7727C200.237 59.5473 200.172 59.3703 200.041 59.2415C199.911 59.1108 199.73 59.0455 199.499 59.0455H198.078V60.3864ZM198.078 58.4659H199.226C199.406 58.4659 199.56 58.4413 199.689 58.392C199.818 58.3409 199.916 58.2689 199.984 58.1761C200.054 58.0814 200.089 57.9697 200.089 57.8409C200.089 57.6572 200.013 57.5133 199.859 57.4091C199.706 57.303 199.495 57.25 199.226 57.25H198.078V58.4659ZM204.854 58.5114V59.1364H202.445V58.5114H204.854ZM202.604 56.6364V61H201.934V56.6364H202.604ZM205.366 56.6364V61H204.695V56.6364H205.366ZM207.874 61.1023C207.598 61.1023 207.347 61.0502 207.121 60.946C206.896 60.84 206.717 60.6875 206.585 60.4886C206.452 60.2879 206.386 60.0455 206.386 59.7614C206.386 59.5114 206.435 59.3087 206.533 59.1534C206.632 58.9962 206.763 58.8731 206.928 58.7841C207.093 58.6951 207.275 58.6288 207.474 58.5852C207.674 58.5398 207.876 58.5038 208.079 58.4773C208.344 58.4432 208.559 58.4176 208.724 58.4006C208.89 58.3816 209.012 58.3504 209.087 58.3068C209.165 58.2633 209.204 58.1875 209.204 58.0795V58.0568C209.204 57.7765 209.127 57.5587 208.974 57.4034C208.822 57.2481 208.592 57.1705 208.283 57.1705C207.963 57.1705 207.712 57.2405 207.531 57.3807C207.349 57.5208 207.221 57.6705 207.147 57.8295L206.511 57.6023C206.624 57.3371 206.776 57.1307 206.965 56.983C207.156 56.8333 207.365 56.7292 207.59 56.6705C207.817 56.6098 208.041 56.5795 208.261 56.5795C208.401 56.5795 208.562 56.5966 208.744 56.6307C208.927 56.6629 209.104 56.7301 209.275 56.8324C209.447 56.9347 209.59 57.089 209.704 57.2955C209.817 57.5019 209.874 57.7784 209.874 58.125V61H209.204V60.4091H209.17C209.124 60.5038 209.049 60.6051 208.942 60.7131C208.836 60.821 208.695 60.9129 208.519 60.9886C208.343 61.0644 208.128 61.1023 207.874 61.1023ZM207.977 60.5C208.242 60.5 208.465 60.4479 208.647 60.3438C208.831 60.2396 208.969 60.1051 209.062 59.9403C209.156 59.7756 209.204 59.6023 209.204 59.4205V58.8068C209.175 58.8409 209.113 58.8722 209.016 58.9006C208.922 58.9271 208.812 58.9508 208.687 58.9716C208.564 58.9905 208.443 59.0076 208.326 59.0227C208.21 59.036 208.117 59.0473 208.045 59.0568C207.871 59.0795 207.708 59.1165 207.556 59.1676C207.406 59.2169 207.285 59.2917 207.192 59.392C207.102 59.4905 207.056 59.625 207.056 59.7955C207.056 60.0284 207.142 60.2045 207.315 60.3239C207.489 60.4413 207.71 60.5 207.977 60.5ZM213.723 61V57.25H212.564C212.303 57.25 212.097 57.3106 211.947 57.4318C211.798 57.553 211.723 57.7197 211.723 57.9318C211.723 58.1402 211.79 58.304 211.925 58.4233C212.061 58.5426 212.248 58.6023 212.484 58.6023H213.893V59.2273H212.484C212.189 59.2273 211.934 59.1752 211.72 59.071C211.506 58.9669 211.341 58.8182 211.226 58.625C211.11 58.4299 211.053 58.1989 211.053 57.9318C211.053 57.6629 211.113 57.4318 211.234 57.2386C211.356 57.0455 211.529 56.8968 211.754 56.7926C211.982 56.6884 212.251 56.6364 212.564 56.6364H214.359V61H213.723ZM210.814 61L212.053 58.8295H212.78L211.541 61H210.814Z" fill="black"/>
<path d="M84.7848 243H84.0803C84.0386 242.797 83.9657 242.619 83.8615 242.466C83.7592 242.312 83.6342 242.184 83.4865 242.08C83.3407 241.973 83.1787 241.894 83.0007 241.841C82.8227 241.788 82.6371 241.761 82.4439 241.761C82.0916 241.761 81.7725 241.85 81.4865 242.028C81.2024 242.206 80.9761 242.469 80.8075 242.815C80.6409 243.162 80.5575 243.587 80.5575 244.091C80.5575 244.595 80.6409 245.02 80.8075 245.366C80.9761 245.713 81.2024 245.975 81.4865 246.153C81.7725 246.331 82.0916 246.42 82.4439 246.42C82.6371 246.42 82.8227 246.394 83.0007 246.341C83.1787 246.288 83.3407 246.209 83.4865 246.105C83.6342 245.999 83.7592 245.869 83.8615 245.716C83.9657 245.561 84.0386 245.383 84.0803 245.182H84.7848C84.7318 245.479 84.6352 245.745 84.495 245.98C84.3549 246.215 84.1806 246.415 83.9723 246.58C83.764 246.742 83.5301 246.866 83.2706 246.952C83.013 247.037 82.7375 247.08 82.4439 247.08C81.9477 247.08 81.5064 246.958 81.12 246.716C80.7337 246.473 80.4297 246.129 80.2081 245.682C79.9865 245.235 79.8757 244.705 79.8757 244.091C79.8757 243.477 79.9865 242.947 80.2081 242.5C80.4297 242.053 80.7337 241.708 81.12 241.466C81.5064 241.223 81.9477 241.102 82.4439 241.102C82.7375 241.102 83.013 241.145 83.2706 241.23C83.5301 241.315 83.764 241.44 83.9723 241.605C84.1806 241.768 84.3549 241.967 84.495 242.202C84.6352 242.435 84.7318 242.701 84.7848 243ZM87.6619 247.091C87.2415 247.091 86.8788 246.998 86.5739 246.812C86.2708 246.625 86.0369 246.364 85.8722 246.028C85.7093 245.691 85.6278 245.299 85.6278 244.852C85.6278 244.405 85.7093 244.011 85.8722 243.67C86.0369 243.328 86.2661 243.061 86.5597 242.869C86.8551 242.676 87.1998 242.58 87.5938 242.58C87.821 242.58 88.0455 242.617 88.267 242.693C88.4886 242.769 88.6903 242.892 88.8722 243.062C89.054 243.231 89.1989 243.455 89.3068 243.733C89.4148 244.011 89.4688 244.354 89.4688 244.761V245.045H86.1051V244.466H88.7869C88.7869 244.22 88.7377 244 88.6392 243.807C88.5426 243.614 88.4044 243.461 88.2244 243.349C88.0464 243.238 87.8362 243.182 87.5938 243.182C87.3267 243.182 87.0956 243.248 86.9006 243.381C86.7074 243.511 86.5587 243.682 86.4545 243.892C86.3504 244.102 86.2983 244.328 86.2983 244.568V244.955C86.2983 245.284 86.3551 245.563 86.4688 245.793C86.5843 246.02 86.7443 246.193 86.9489 246.312C87.1534 246.43 87.3911 246.489 87.6619 246.489C87.8381 246.489 87.9972 246.464 88.1392 246.415C88.2831 246.364 88.4072 246.288 88.5114 246.188C88.6155 246.085 88.696 245.958 88.7528 245.807L89.4006 245.989C89.3324 246.208 89.2178 246.402 89.0568 246.568C88.8958 246.733 88.697 246.862 88.4602 246.955C88.2235 247.045 87.9574 247.091 87.6619 247.091ZM90.4886 248.636V242.636H91.1364V243.33H91.2159C91.2652 243.254 91.3333 243.157 91.4205 243.04C91.5095 242.92 91.6364 242.814 91.8011 242.722C91.9678 242.627 92.1932 242.58 92.4773 242.58C92.8447 242.58 93.1686 242.671 93.4489 242.855C93.7292 243.039 93.9479 243.299 94.1051 243.636C94.2623 243.973 94.3409 244.371 94.3409 244.83C94.3409 245.292 94.2623 245.692 94.1051 246.031C93.9479 246.368 93.7301 246.63 93.4517 246.815C93.1733 246.999 92.8523 247.091 92.4886 247.091C92.2083 247.091 91.9839 247.045 91.8153 246.952C91.6468 246.857 91.517 246.75 91.4261 246.631C91.3352 246.509 91.2652 246.409 91.2159 246.33H91.1591V248.636H90.4886ZM91.1477 244.818C91.1477 245.148 91.196 245.438 91.2926 245.69C91.3892 245.94 91.5303 246.136 91.7159 246.278C91.9015 246.419 92.1288 246.489 92.3977 246.489C92.678 246.489 92.9119 246.415 93.0994 246.267C93.2888 246.117 93.4309 245.917 93.5256 245.665C93.6222 245.411 93.6705 245.129 93.6705 244.818C93.6705 244.511 93.6231 244.235 93.5284 243.989C93.4356 243.741 93.2945 243.545 93.1051 243.401C92.9176 243.255 92.6818 243.182 92.3977 243.182C92.125 243.182 91.8958 243.251 91.7102 243.389C91.5246 243.526 91.3845 243.717 91.2898 243.963C91.1951 244.207 91.1477 244.492 91.1477 244.818ZM95.3636 247V242.636H97.1477C97.6174 242.636 97.9905 242.742 98.267 242.955C98.5436 243.167 98.6818 243.447 98.6818 243.795C98.6818 244.061 98.6032 244.266 98.446 244.412C98.2888 244.556 98.0871 244.653 97.8409 244.705C98.0019 244.727 98.1581 244.784 98.3097 244.875C98.4631 244.966 98.59 245.091 98.6903 245.25C98.7907 245.407 98.8409 245.6 98.8409 245.83C98.8409 246.053 98.7841 246.253 98.6705 246.429C98.5568 246.605 98.3939 246.744 98.1818 246.847C97.9697 246.949 97.7159 247 97.4205 247H95.3636ZM96 246.386H97.4205C97.6515 246.386 97.8324 246.331 97.9631 246.222C98.0938 246.112 98.1591 245.962 98.1591 245.773C98.1591 245.547 98.0938 245.37 97.9631 245.241C97.8324 245.111 97.6515 245.045 97.4205 245.045H96V246.386ZM96 244.466H97.1477C97.3277 244.466 97.482 244.441 97.6108 244.392C97.7396 244.341 97.8381 244.269 97.9062 244.176C97.9763 244.081 98.0114 243.97 98.0114 243.841C98.0114 243.657 97.9347 243.513 97.7812 243.409C97.6278 243.303 97.4167 243.25 97.1477 243.25H96V244.466ZM100.526 246.011L102.629 242.636H103.401V247H102.731V243.625L100.64 247H99.8558V242.636H100.526V246.011ZM106.402 247.091C105.993 247.091 105.641 246.994 105.345 246.801C105.05 246.608 104.822 246.342 104.663 246.003C104.504 245.664 104.425 245.277 104.425 244.841C104.425 244.398 104.506 244.007 104.669 243.668C104.834 243.327 105.063 243.061 105.357 242.869C105.652 242.676 105.997 242.58 106.391 242.58C106.697 242.58 106.974 242.636 107.22 242.75C107.466 242.864 107.668 243.023 107.825 243.227C107.982 243.432 108.08 243.67 108.118 243.943H107.447C107.396 243.744 107.283 243.568 107.107 243.415C106.932 243.259 106.697 243.182 106.402 243.182C106.141 243.182 105.911 243.25 105.714 243.386C105.519 243.521 105.367 243.711 105.257 243.957C105.149 244.202 105.095 244.489 105.095 244.818C105.095 245.155 105.148 245.449 105.254 245.699C105.362 245.949 105.514 246.143 105.709 246.281C105.906 246.42 106.137 246.489 106.402 246.489C106.576 246.489 106.734 246.458 106.876 246.398C107.018 246.337 107.139 246.25 107.237 246.136C107.336 246.023 107.406 245.886 107.447 245.727H108.118C108.08 245.985 107.986 246.217 107.837 246.423C107.689 246.628 107.493 246.791 107.249 246.912C107.006 247.031 106.724 247.091 106.402 247.091ZM112.018 244.511V245.136H109.609V244.511H112.018ZM109.768 242.636V247H109.098V242.636H109.768ZM112.53 242.636V247H111.859V242.636H112.53ZM114.334 244.216H115.584C116.095 244.216 116.486 244.346 116.757 244.605C117.028 244.865 117.163 245.193 117.163 245.591C117.163 245.852 117.103 246.09 116.982 246.304C116.86 246.516 116.682 246.686 116.447 246.812C116.213 246.938 115.925 247 115.584 247H113.754V242.636H114.425V246.375H115.584C115.849 246.375 116.067 246.305 116.237 246.165C116.408 246.025 116.493 245.845 116.493 245.625C116.493 245.394 116.408 245.205 116.237 245.06C116.067 244.914 115.849 244.841 115.584 244.841H114.334V244.216ZM117.857 247V242.636H118.527V247H117.857ZM120.425 246.011L122.527 242.636H123.3V247H122.629V243.625L120.538 247H119.754V242.636H120.425V246.011ZM122.084 241.182H122.709C122.709 241.489 122.603 241.74 122.391 241.935C122.179 242.13 121.891 242.227 121.527 242.227C121.169 242.227 120.884 242.13 120.672 241.935C120.462 241.74 120.357 241.489 120.357 241.182H120.982C120.982 241.33 121.022 241.459 121.104 241.571C121.187 241.683 121.328 241.739 121.527 241.739C121.726 241.739 121.868 241.683 121.953 241.571C122.04 241.459 122.084 241.33 122.084 241.182ZM130.21 242.636V246.375H130.823V248.409H130.153V247H126.778V242.636H127.448V246.375H129.539V242.636H130.21ZM133.638 247.091C133.218 247.091 132.855 246.998 132.55 246.812C132.247 246.625 132.013 246.364 131.849 246.028C131.686 245.691 131.604 245.299 131.604 244.852C131.604 244.405 131.686 244.011 131.849 243.67C132.013 243.328 132.243 243.061 132.536 242.869C132.832 242.676 133.176 242.58 133.57 242.58C133.798 242.58 134.022 242.617 134.244 242.693C134.465 242.769 134.667 242.892 134.849 243.062C135.031 243.231 135.175 243.455 135.283 243.733C135.391 244.011 135.445 244.354 135.445 244.761V245.045H132.082V244.466H134.763C134.763 244.22 134.714 244 134.616 243.807C134.519 243.614 134.381 243.461 134.201 243.349C134.023 243.238 133.813 243.182 133.57 243.182C133.303 243.182 133.072 243.248 132.877 243.381C132.684 243.511 132.535 243.682 132.431 243.892C132.327 244.102 132.275 244.328 132.275 244.568V244.955C132.275 245.284 132.332 245.563 132.445 245.793C132.561 246.02 132.721 246.193 132.925 246.312C133.13 246.43 133.368 246.489 133.638 246.489C133.815 246.489 133.974 246.464 134.116 246.415C134.26 246.364 134.384 246.288 134.488 246.188C134.592 246.085 134.673 245.958 134.729 245.807L135.377 245.989C135.309 246.208 135.194 246.402 135.033 246.568C134.872 246.733 134.674 246.862 134.437 246.955C134.2 247.045 133.934 247.091 133.638 247.091ZM139.386 244.511V245.136H136.977V244.511H139.386ZM137.136 242.636V247H136.465V242.636H137.136ZM139.897 242.636V247H139.227V242.636H139.897ZM140.528 243.261V242.636H144.073V243.261H142.641V247H141.971V243.261H140.528ZM145.051 248.636V242.636H145.699V243.33H145.778C145.828 243.254 145.896 243.157 145.983 243.04C146.072 242.92 146.199 242.814 146.364 242.722C146.53 242.627 146.756 242.58 147.04 242.58C147.407 242.58 147.731 242.671 148.011 242.855C148.292 243.039 148.51 243.299 148.668 243.636C148.825 243.973 148.903 244.371 148.903 244.83C148.903 245.292 148.825 245.692 148.668 246.031C148.51 246.368 148.293 246.63 148.014 246.815C147.736 246.999 147.415 247.091 147.051 247.091C146.771 247.091 146.546 247.045 146.378 246.952C146.209 246.857 146.08 246.75 145.989 246.631C145.898 246.509 145.828 246.409 145.778 246.33H145.722V248.636H145.051ZM145.71 244.818C145.71 245.148 145.759 245.438 145.855 245.69C145.952 245.94 146.093 246.136 146.278 246.278C146.464 246.419 146.691 246.489 146.96 246.489C147.241 246.489 147.474 246.415 147.662 246.267C147.851 246.117 147.993 245.917 148.088 245.665C148.185 245.411 148.233 245.129 148.233 244.818C148.233 244.511 148.186 244.235 148.091 243.989C147.998 243.741 147.857 243.545 147.668 243.401C147.48 243.255 147.244 243.182 146.96 243.182C146.688 243.182 146.458 243.251 146.273 243.389C146.087 243.526 145.947 243.717 145.852 243.963C145.758 244.207 145.71 244.492 145.71 244.818ZM152.176 247V242.636H152.847V244.534H153.29L154.858 242.636H155.722L153.96 244.739L155.744 247H154.881L153.449 245.159H152.847V247H152.176ZM158.066 247.091C157.672 247.091 157.326 246.997 157.029 246.81C156.734 246.622 156.503 246.36 156.336 246.023C156.171 245.686 156.089 245.292 156.089 244.841C156.089 244.386 156.171 243.99 156.336 243.651C156.503 243.312 156.734 243.048 157.029 242.861C157.326 242.673 157.672 242.58 158.066 242.58C158.46 242.58 158.805 242.673 159.1 242.861C159.397 243.048 159.629 243.312 159.793 243.651C159.96 243.99 160.043 244.386 160.043 244.841C160.043 245.292 159.96 245.686 159.793 246.023C159.629 246.36 159.397 246.622 159.1 246.81C158.805 246.997 158.46 247.091 158.066 247.091ZM158.066 246.489C158.365 246.489 158.612 246.412 158.805 246.259C158.998 246.105 159.141 245.903 159.234 245.653C159.326 245.403 159.373 245.133 159.373 244.841C159.373 244.549 159.326 244.277 159.234 244.026C159.141 243.774 158.998 243.57 158.805 243.415C158.612 243.259 158.365 243.182 158.066 243.182C157.767 243.182 157.521 243.259 157.327 243.415C157.134 243.57 156.991 243.774 156.898 244.026C156.806 244.277 156.759 244.549 156.759 244.841C156.759 245.133 156.806 245.403 156.898 245.653C156.991 245.903 157.134 246.105 157.327 246.259C157.521 246.412 157.767 246.489 158.066 246.489ZM160.496 243.261V242.636H164.042V243.261H162.61V247H161.94V243.261H160.496ZM166.566 247.091C166.172 247.091 165.826 246.997 165.529 246.81C165.234 246.622 165.003 246.36 164.836 246.023C164.671 245.686 164.589 245.292 164.589 244.841C164.589 244.386 164.671 243.99 164.836 243.651C165.003 243.312 165.234 243.048 165.529 242.861C165.826 242.673 166.172 242.58 166.566 242.58C166.96 242.58 167.305 242.673 167.6 242.861C167.897 243.048 168.129 243.312 168.293 243.651C168.46 243.99 168.543 244.386 168.543 244.841C168.543 245.292 168.46 245.686 168.293 246.023C168.129 246.36 167.897 246.622 167.6 246.81C167.305 246.997 166.96 247.091 166.566 247.091ZM166.566 246.489C166.865 246.489 167.112 246.412 167.305 246.259C167.498 246.105 167.641 245.903 167.734 245.653C167.826 245.403 167.873 245.133 167.873 244.841C167.873 244.549 167.826 244.277 167.734 244.026C167.641 243.774 167.498 243.57 167.305 243.415C167.112 243.259 166.865 243.182 166.566 243.182C166.267 243.182 166.021 243.259 165.827 243.415C165.634 243.57 165.491 243.774 165.398 244.026C165.306 244.277 165.259 244.549 165.259 244.841C165.259 245.133 165.306 245.403 165.398 245.653C165.491 245.903 165.634 246.105 165.827 246.259C166.021 246.412 166.267 246.489 166.566 246.489ZM169.567 248.636V242.636H170.214V243.33H170.294C170.343 243.254 170.411 243.157 170.499 243.04C170.588 242.92 170.714 242.814 170.879 242.722C171.046 242.627 171.271 242.58 171.555 242.58C171.923 242.58 172.247 242.671 172.527 242.855C172.807 243.039 173.026 243.299 173.183 243.636C173.34 243.973 173.419 244.371 173.419 244.83C173.419 245.292 173.34 245.692 173.183 246.031C173.026 246.368 172.808 246.63 172.53 246.815C172.251 246.999 171.93 247.091 171.567 247.091C171.286 247.091 171.062 247.045 170.893 246.952C170.725 246.857 170.595 246.75 170.504 246.631C170.413 246.509 170.343 246.409 170.294 246.33H170.237V248.636H169.567ZM170.226 244.818C170.226 245.148 170.274 245.438 170.371 245.69C170.467 245.94 170.608 246.136 170.794 246.278C170.98 246.419 171.207 246.489 171.476 246.489C171.756 246.489 171.99 246.415 172.178 246.267C172.367 246.117 172.509 245.917 172.604 245.665C172.7 245.411 172.749 245.129 172.749 244.818C172.749 244.511 172.701 244.235 172.607 243.989C172.514 243.741 172.373 243.545 172.183 243.401C171.996 243.255 171.76 243.182 171.476 243.182C171.203 243.182 170.974 243.251 170.788 243.389C170.603 243.526 170.463 243.717 170.368 243.963C170.273 244.207 170.226 244.492 170.226 244.818ZM175.021 244.216H176.271C176.783 244.216 177.174 244.346 177.445 244.605C177.715 244.865 177.851 245.193 177.851 245.591C177.851 245.852 177.79 246.09 177.669 246.304C177.548 246.516 177.37 246.686 177.135 246.812C176.9 246.938 176.612 247 176.271 247H174.442V242.636H175.112V246.375H176.271C176.536 246.375 176.754 246.305 176.925 246.165C177.095 246.025 177.18 245.845 177.18 245.625C177.18 245.394 177.095 245.205 176.925 245.06C176.754 244.914 176.536 244.841 176.271 244.841H175.021V244.216ZM178.544 247V242.636H179.214V247H178.544ZM181.112 246.011L183.214 242.636H183.987V247H183.317V243.625L181.226 247H180.442V242.636H181.112V246.011ZM182.771 241.182H183.396C183.396 241.489 183.29 241.74 183.078 241.935C182.866 242.13 182.578 242.227 182.214 242.227C181.857 242.227 181.571 242.13 181.359 241.935C181.149 241.74 181.044 241.489 181.044 241.182H181.669C181.669 241.33 181.71 241.459 181.791 241.571C181.875 241.683 182.016 241.739 182.214 241.739C182.413 241.739 182.555 241.683 182.641 241.571C182.728 241.459 182.771 241.33 182.771 241.182ZM111.637 257V252.636H113.421C113.891 252.636 114.264 252.742 114.54 252.955C114.817 253.167 114.955 253.447 114.955 253.795C114.955 254.061 114.877 254.266 114.719 254.412C114.562 254.556 114.361 254.653 114.114 254.705C114.275 254.727 114.432 254.784 114.583 254.875C114.737 254.966 114.863 255.091 114.964 255.25C115.064 255.407 115.114 255.6 115.114 255.83C115.114 256.053 115.058 256.253 114.944 256.429C114.83 256.605 114.667 256.744 114.455 256.847C114.243 256.949 113.989 257 113.694 257H111.637ZM112.273 256.386H113.694C113.925 256.386 114.106 256.331 114.237 256.222C114.367 256.112 114.433 255.962 114.433 255.773C114.433 255.547 114.367 255.37 114.237 255.241C114.106 255.111 113.925 255.045 113.694 255.045H112.273V256.386ZM112.273 254.466H113.421C113.601 254.466 113.755 254.441 113.884 254.392C114.013 254.341 114.112 254.269 114.18 254.176C114.25 254.081 114.285 253.97 114.285 253.841C114.285 253.657 114.208 253.513 114.055 253.409C113.901 253.303 113.69 253.25 113.421 253.25H112.273V254.466ZM117.413 257.102C117.137 257.102 116.886 257.05 116.661 256.946C116.435 256.84 116.256 256.688 116.124 256.489C115.991 256.288 115.925 256.045 115.925 255.761C115.925 255.511 115.974 255.309 116.072 255.153C116.171 254.996 116.303 254.873 116.467 254.784C116.632 254.695 116.814 254.629 117.013 254.585C117.214 254.54 117.415 254.504 117.618 254.477C117.883 254.443 118.098 254.418 118.263 254.401C118.429 254.382 118.551 254.35 118.626 254.307C118.704 254.263 118.743 254.187 118.743 254.08V254.057C118.743 253.777 118.666 253.559 118.513 253.403C118.361 253.248 118.131 253.17 117.822 253.17C117.502 253.17 117.251 253.241 117.07 253.381C116.888 253.521 116.76 253.67 116.686 253.83L116.05 253.602C116.163 253.337 116.315 253.131 116.504 252.983C116.696 252.833 116.904 252.729 117.129 252.67C117.357 252.61 117.58 252.58 117.8 252.58C117.94 252.58 118.101 252.597 118.283 252.631C118.466 252.663 118.643 252.73 118.814 252.832C118.986 252.935 119.129 253.089 119.243 253.295C119.357 253.502 119.413 253.778 119.413 254.125V257H118.743V256.409H118.709C118.663 256.504 118.588 256.605 118.482 256.713C118.375 256.821 118.234 256.913 118.058 256.989C117.882 257.064 117.667 257.102 117.413 257.102ZM117.516 256.5C117.781 256.5 118.004 256.448 118.186 256.344C118.37 256.24 118.508 256.105 118.601 255.94C118.696 255.776 118.743 255.602 118.743 255.42V254.807C118.714 254.841 118.652 254.872 118.555 254.901C118.461 254.927 118.351 254.951 118.226 254.972C118.103 254.991 117.982 255.008 117.865 255.023C117.75 255.036 117.656 255.047 117.584 255.057C117.41 255.08 117.247 255.116 117.095 255.168C116.946 255.217 116.824 255.292 116.732 255.392C116.641 255.491 116.595 255.625 116.595 255.795C116.595 256.028 116.681 256.205 116.854 256.324C117.028 256.441 117.249 256.5 117.516 256.5ZM123.023 256.091L124.546 252.636H125.183L123.296 257H122.751L120.898 252.636H121.523L123.023 256.091ZM121.308 252.636V257H120.637V252.636H121.308ZM124.739 257V252.636H125.41V257H124.739ZM131.808 254.511V255.136H129.398V254.511H131.808ZM129.558 252.636V257H128.887V252.636H129.558ZM132.319 252.636V257H131.648V252.636H132.319ZM133.819 258.636C133.705 258.636 133.604 258.627 133.515 258.608C133.426 258.591 133.364 258.574 133.33 258.557L133.501 257.966C133.664 258.008 133.808 258.023 133.933 258.011C134.058 258 134.168 257.944 134.265 257.844C134.363 257.745 134.453 257.585 134.535 257.364L134.66 257.023L133.046 252.636H133.773L134.978 256.114H135.023L136.228 252.636H136.955L135.103 257.636C135.02 257.862 134.916 258.048 134.793 258.196C134.67 258.346 134.527 258.456 134.364 258.528C134.203 258.6 134.022 258.636 133.819 258.636ZM137.567 257L139.34 254.784L137.59 252.636H138.386L139.84 254.5H140.204V252.636H140.874V254.5H141.227L142.681 252.636H143.477L141.738 254.784L143.499 257H142.692L141.215 255.125H140.874V257H140.204V255.125H139.863L138.374 257H137.567ZM146.107 257.091C145.687 257.091 145.324 256.998 145.019 256.812C144.716 256.625 144.482 256.364 144.317 256.028C144.155 255.691 144.073 255.299 144.073 254.852C144.073 254.405 144.155 254.011 144.317 253.67C144.482 253.328 144.711 253.061 145.005 252.869C145.3 252.676 145.645 252.58 146.039 252.58C146.266 252.58 146.491 252.617 146.712 252.693C146.934 252.769 147.136 252.892 147.317 253.062C147.499 253.231 147.644 253.455 147.752 253.733C147.86 254.011 147.914 254.354 147.914 254.761V255.045H144.55V254.466H147.232C147.232 254.22 147.183 254 147.085 253.807C146.988 253.614 146.85 253.461 146.67 253.349C146.492 253.238 146.281 253.182 146.039 253.182C145.772 253.182 145.541 253.248 145.346 253.381C145.153 253.511 145.004 253.682 144.9 253.892C144.796 254.102 144.744 254.328 144.744 254.568V254.955C144.744 255.284 144.8 255.563 144.914 255.793C145.03 256.02 145.19 256.193 145.394 256.312C145.599 256.43 145.836 256.489 146.107 256.489C146.283 256.489 146.442 256.464 146.585 256.415C146.728 256.364 146.853 256.288 146.957 256.188C147.061 256.085 147.141 255.958 147.198 255.807L147.846 255.989C147.778 256.208 147.663 256.402 147.502 256.568C147.341 256.733 147.142 256.862 146.906 256.955C146.669 257.045 146.403 257.091 146.107 257.091ZM151.854 254.511V255.136H149.445V254.511H151.854ZM149.604 252.636V257H148.934V252.636H149.604ZM152.366 252.636V257H151.695V252.636H152.366Z" fill="#B5B5B5"/>
</svg>
